<svg xml:space="preserve" style="enable-background:new 0 0 1024 1024;" viewBox="0 0 1024 1024" y="0px" x="0px" xmlns:xlink="http://www.w3.org/1999/xlink" xmlns="http://www.w3.org/2000/svg" id="图层_1" version="1.1">
<style type="text/css">
	.st0{fill:#FEA92E;stroke:#6A3906;stroke-width:6;stroke-miterlimit:10;}
	.st1{fill:#006934;stroke:#6A3906;stroke-width:6;stroke-miterlimit:10;}
	.st2{fill:#70CE49;stroke:#6A3906;stroke-width:6;stroke-miterlimit:10;}
	.st3{fill:#22AC38;stroke:#6A3906;stroke-width:6;stroke-miterlimit:10;}
	.st4{fill:#6A3906;}
	.st5{fill:#FFCA5F;}
	.st6{clip-path:url(#SVGID_2_);fill:#FEA92E;}
	.st7{clip-path:url(#SVGID_4_);fill:#DC8815;}
	.st8{fill:none;stroke:#6A3906;stroke-width:6;stroke-miterlimit:10;}
	.st9{fill:#DC8815;}
	.st10{clip-path:url(#SVGID_6_);fill:#B66B03;}
	.st11{clip-path:url(#SVGID_8_);fill:#955017;}
</style>
<g>
	<g>
		<path d="M576.9,284.2c-25.3,14-51.5,15-58.8,2.4c-7-12.6,7.9-34.4,33.1-48.5c25.3-14,58.8-2.4,58.8-2.4
			S602.1,270.2,576.9,284.2z" class="st0"></path>
		<path d="M545.3,234.7c-0.6,29-12.7,52.2-27.2,52c-14.5-0.2-26-23.9-25.4-52.9c0.6-29,27.2-52,27.2-52
			S545.9,205.6,545.3,234.7z" class="st0"></path>
		<path d="M567.7,255.3c-15,24.9-37.1,38.8-49.6,31.4c-12.5-7.5-10.6-33.7,4.4-58.6c15-24.9,49.6-31.4,49.6-31.4
			S582.7,230.4,567.7,255.3z" class="st0"></path>
		<path d="M515.7,228.1c14,25.3,15,51.5,2.4,58.8c-12.6,7-34.4-7.9-48.5-33.1s-2.4-58.8-2.4-58.8
			S501.6,202.6,515.7,228.1z" class="st0"></path>
		<path d="M486.7,237.1c24.9,15,38.8,37.1,31.4,49.6c-7.5,12.5-33.7,10.6-58.6-4.4c-24.9-15-31.4-49.6-31.4-49.6
			S461.8,222.3,486.7,237.1z" class="st0"></path>
	</g>
	<g>
		<path d="M511.3,270.9c84.8,0,153.6,87.3,153.6,194.9s-68.8,194.9-153.6,194.9c132.4,0,239.7-87.3,239.7-194.9
			S643.7,270.9,511.3,270.9z" class="st1"></path>
		<path d="M357.8,465.8c0-107.7,68.8-194.9,153.6-194.9c-132.4,0-239.7,87.3-239.7,194.9S379,660.7,511.3,660.7
			C426.5,660.7,357.8,573.5,357.8,465.8z" class="st2"></path>
		<ellipse ry="194.9" rx="153.6" cy="465.8" cx="511.3" class="st3"></ellipse>
	</g>
	<polygon points="698.7,303.8 693.1,350.4 755,335.2 713.5,334.2 737.4,293.2 707.4,330" class="st4"></polygon>
	<polygon points="620.1,252.9 614.5,299.5 676.4,284.2 635,283.3 658.8,242.3 628.8,279.1" class="st4"></polygon>
	<polygon points="715.8,412.1 710.2,458.6 772.1,443.4 730.7,442.4 754.5,401.5 724.5,438.2" class="st4"></polygon>
	<polygon points="644.6,385.7 629.4,430 693.1,428.2 652.8,418.5 684.7,383.5 647.6,413.1" class="st4"></polygon>
	<polygon points="427.9,437.7 459.6,472.3 488.3,415.4 460.6,446.2 445,401.5 453.4,448.2" class="st4"></polygon>
	<polygon points="355.7,348.4 402.4,352.5 385.2,291.1 385.6,332.6 343.9,310 381.6,338.9" class="st4"></polygon>
	<polygon points="264.1,371.3 310.8,375.4 293.6,314 294,355.5 252.2,332.9 289.9,361.8" class="st4"></polygon>
	<polygon points="376.5,279 408.1,295.2 414.4,246.6 402.2,276.2 379.7,248.3 397.5,279.5" class="st4"></polygon>
	<polygon points="499.7,337.2 517.8,380.5 564.1,336.7 527.6,356.3 528.1,308.9 520.2,355.7" class="st4"></polygon>
	<polygon points="547.2,479.3 578.9,513.9 607.6,457 579.9,487.8 564.3,443 572.7,489.8" class="st4"></polygon>
	<polygon points="326.5,511.1 373.2,515.3 356,453.9 356.3,495.4 314.6,472.8 352.3,501.6" class="st4"></polygon>
	<polygon points="239.7,500.3 286.4,504.4 269.2,443 269.6,484.5 227.9,462 265.6,490.8" class="st4"></polygon>
	<g>
		<g>
			<g>
				<path d="M741.2,652.1c0,74.1-54.4,140.5-104.3,184.8h-248C339,792.7,281.5,726.2,281.5,652.1
					c0-24.4,3.4-48.1,9.8-70.3h439.7C737.6,604,741.2,627.5,741.2,652.1z" class="st5" id="XMLID_33_"></path>
			</g>
			<g>
				<defs>
					<path d="M741.2,652.1c0,74.1-54.4,140.5-104.3,184.8h-248C339,792.7,281.5,726.2,281.5,652.1
						c0-24.4,3.4-48.1,9.8-70.3h439.7C737.6,604,741.2,627.5,741.2,652.1z" id="SVGID_1_"></path>
				</defs>
				<clipPath id="SVGID_2_">
					<use style="overflow:visible;" xlink:href="#SVGID_1_"></use>
				</clipPath>
				<path d="M386.2,571.3c0,0-45.2,69.8-1.3,135.2c43.9,65.3-5.4,205.7-5.4,205.7s120.6,12.8,125.1,12.1
					c4.7-0.7,165.2-13.4,175.7-28c10.7-14.5-1.3-339.5-20.6-340.2S386.2,571.3,386.2,571.3z" class="st6"></path>
			</g>
			<g>
				<defs>
					<path d="M741.2,652.1c0,74.1-54.4,140.5-104.3,184.8h-248C339,792.7,281.5,726.2,281.5,652.1
						c0-24.4,3.4-48.1,9.8-70.3h439.7C737.6,604,741.2,627.5,741.2,652.1z" id="SVGID_3_"></path>
				</defs>
				<clipPath id="SVGID_4_">
					<use style="overflow:visible;" xlink:href="#SVGID_3_"></use>
				</clipPath>
				<path d="M628.6,575.6c0,0,28.4,105.9-23.9,247.3c-52.4,141.4,149-83.2,151.7-88.6c2.7-5.4,4.5-174.1,4.5-174.1
					s-28.4-20.4-46.1-17.7C697.1,545.1,628.6,575.6,628.6,575.6L628.6,575.6" class="st7"></path>
			</g>
			<g>
				<path d="M741.2,652.1c0,74.1-54.4,140.5-104.3,184.8h-248C339,792.7,281.5,726.2,281.5,652.1
					c0-24.4,3.4-48.1,9.8-70.3h439.7C737.6,604,741.2,627.5,741.2,652.1z" class="st8" id="XMLID_20_"></path>
			</g>
		</g>
		<g>
			<g>
				<path d="M753.5,589.5H269.2c-13.7,0-25.1-11.2-25.1-25.1l0,0c0-13.7,11.2-25.1,25.1-25.1h484.3
					c13.7,0,25.1,11.2,25.1,25.1l0,0C778.3,578.3,767.1,589.5,753.5,589.5z" class="st9" id="XMLID_19_"></path>
			</g>
			<g>
				<defs>
					<path d="M753.5,589.5H269.2c-13.7,0-25.1-11.2-25.1-25.1l0,0c0-13.7,11.2-25.1,25.1-25.1h484.3
						c13.7,0,25.1,11.2,25.1,25.1l0,0C778.3,578.3,767.1,589.5,753.5,589.5z" id="SVGID_5_"></path>
				</defs>
				<clipPath id="SVGID_6_">
					<use style="overflow:visible;" xlink:href="#SVGID_5_"></use>
				</clipPath>
				<path d="M485.2,457c-3.4,4.9-28.2,56.8,40.1,182.4s412,151.5,412,151.5s32.4-312.9,0-319.3
					C904.8,465,485.2,457,485.2,457z" class="st10"></path>
			</g>
			<g>
				<defs>
					<path d="M753.5,589.5H269.2c-13.7,0-25.1-11.2-25.1-25.1l0,0c0-13.7,11.2-25.1,25.1-25.1h484.3
						c13.7,0,25.1,11.2,25.1,25.1l0,0C778.3,578.3,767.1,589.5,753.5,589.5z" id="SVGID_7_"></path>
				</defs>
				<clipPath id="SVGID_8_">
					<use style="overflow:visible;" xlink:href="#SVGID_7_"></use>
				</clipPath>
				<path d="M594.1,521.7c0,1.6-33.6,55.1,66.9,114.6c100.5,59.5,157.1-5.1,157.1-5.1l-13-137.4L689,462.8L594.1,521.7
					z" class="st11"></path>
			</g>
			<g>
				<path d="M753.5,589.5H269.2c-13.7,0-25.1-11.2-25.1-25.1l0,0c0-13.7,11.2-25.1,25.1-25.1h484.3
					c13.7,0,25.1,11.2,25.1,25.1l0,0C778.3,578.3,767.1,589.5,753.5,589.5z" class="st8" id="XMLID_16_"></path>
			</g>
		</g>
	</g>
</g>
</svg>
