<?xml version="1.0" standalone="no"?><!DOCTYPE svg PUBLIC "-//W3C//DTD SVG 1.1//EN" "http://www.w3.org/Graphics/SVG/1.1/DTD/svg11.dtd"><svg t="1667294423025" class="icon" viewBox="0 0 1024 1024" version="1.1" xmlns="http://www.w3.org/2000/svg" p-id="7877" xmlns:xlink="http://www.w3.org/1999/xlink" width="200" height="200"><path d="M808.728649 847.058316a128.534411 128.534411 0 0 1 6.619798-188.526329 211.143973 211.143973 0 0 0 10.205522-310.716768l-16.411583-16.135758a128.534411 128.534411 0 0 1 5.654411-188.52633L979.188447 0.137912h-126.051987l-92.677172 80.678788a211.281886 211.281886 0 0 0-9.240134 310.027206l16.411582 16.135757a128.396498 128.396498 0 0 1-6.20606 188.940068 211.143973 211.143973 0 0 0-10.895084 310.027205l119.018451 118.053064h117.087676z m-688.183165-95.711245a127.155286 127.155286 0 0 1 44.545724-92.815084 211.143973 211.143973 0 0 0 10.205522-310.716768l-16.411583-16.135758a128.534411 128.534411 0 0 1 5.654411-188.52633L328.931208 0.137912h-126.051987L110.202049 80.8167a211.281886 211.281886 0 0 0-9.240134 310.027206l16.411582 16.135757a128.396498 128.396498 0 0 1-6.20606 188.940068 211.143973 211.143973 0 0 0-10.895085 310.027205l119.018452 118.053064h117.087676L158.333497 847.472054a127.155286 127.155286 0 0 1-37.788013-96.124983z" p-id="7878" fill="#0061b0"></path><path d="M292.660231 505.311246a209.213199 209.213199 0 0 1-3.585724 31.168215L639.785888 185.768081a211.695623 211.695623 0 0 1 65.232592-104.951381L797.695652 0.137912h-70.335353L285.212959 442.836902a210.592323 210.592323 0 0 1 7.447272 62.474344zM475.394238 0h-92.815084l-41.373738 35.443502-159.564713 159.564713a128.672323 128.672323 0 0 0 2.206599 95.297509zM229.496326 347.815219a210.178586 210.178586 0 0 1 32.133602 41.373737L650.405147 0.55165H552.901039L217.084204 335.265185z m405.048888-79.437576L178.468716 724.454141a130.603098 130.603098 0 0 0-3.723636 26.89293 127.431111 127.431111 0 0 0 13.791246 61.233131l469.867744-470.833131a211.971448 211.971448 0 0 1-23.720943-73.369428z m1.1033 524.06734L404.23141 1023.862088h97.504107l160.530101-160.530101a212.10936 212.10936 0 0 1-26.479191-70.887004z m148.393805 201.765926l-29.099529 29.651179h59.578182z m-71.990303-587.369158l-16.411583-16.411583c-1.379125-1.379125-2.620337-2.896162-3.999461-4.275286L221.91114 855.884714l48.958923 48.545185 465.316633-465.316633a129.086061 129.086061 0 0 0-24.13468-32.271515z m-132.671785 617.020337h97.504108l68.956229-68.956229-48.958923-48.545186z m-220.659932-31.995691L637.027639 713.559057a211.695623 211.695623 0 0 1 68.956229-117.777239 127.017374 127.017374 0 0 0 44.545724-93.090909L309.899288 943.321212z" p-id="7879" fill="#0061b0"></path></svg>